<svg width="24" height="24" viewBox="0 0 24 24" fill="none" xmlns="http://www.w3.org/2000/svg">
<g clip-path="url(#clip0_10835_5799)">
<path d="M17.2175 1.19133C15.6399 0.428485 13.87 0.000610352 12.0001 0.000610352C10.1303 0.000610352 8.36037 0.428485 6.78274 1.19133L5.73926 12.0006L6.78274 22.8099C8.36037 23.5727 10.1303 24.0006 12.0001 24.0006C13.87 24.0006 15.6399 23.5727 17.2175 22.8099L18.261 12.0006L17.2175 1.19133Z" fill="#FFDA44"/>
<path d="M6.78262 1.19214C2.76872 3.13309 0 7.24351 0 12.001C0 16.7585 2.76872 20.8689 6.78262 22.8099V1.19214Z" fill="#0052B4"/>
<path d="M17.2178 1.19214V22.8099C21.2317 20.8689 24.0004 16.7585 24.0004 12.001C24.0004 7.24351 21.2317 3.13309 17.2178 1.19214Z" fill="#D80027"/>
</g>
<defs>
<clipPath id="clip0_10835_5799">
<rect width="24" height="24" fill="white"/>
</clipPath>
</defs>
</svg>
