<svg width="24" height="24" viewBox="0 0 24 24" fill="none" xmlns="http://www.w3.org/2000/svg">
<g clip-path="url(#clip0_5212_393010)">
<path d="M12 -1.04907e-06C5.37259 -1.62846e-06 1.62846e-06 5.37258 1.04907e-06 12C4.69686e-07 18.6274 5.37258 24 12 24C18.6274 24 24 18.6274 24 12C24 5.37258 18.6274 -4.69686e-07 12 -1.04907e-06Z" fill="#F0F0F0"/>
<path d="M0.746392 7.82666C0.264001 9.12664 4.93216e-07 10.5327 3.64893e-07 12.0005C2.3657e-07 13.4684 0.264 14.8745 0.746391 16.1744L23.2536 16.1744C23.736 14.8745 24 13.4684 24 12.0005C24 10.5327 23.736 9.12664 23.2536 7.82666L12 6.78317L0.746392 7.82666Z" fill="#0052B4"/>
<path d="M11.9993 0.000482052C6.83975 0.000481601 2.44123 3.25698 0.745712 7.8266L23.2529 7.8266C21.5574 3.25699 17.1589 0.000482503 11.9993 0.000482052Z" fill="#D80027"/>
</g>
<defs>
<clipPath id="clip0_5212_393010">
<rect width="24" height="24" fill="white" transform="translate(24 24) rotate(-180)"/>
</clipPath>
</defs>
</svg>
