<svg width="22" height="22" viewBox="0 0 22 22" fill="none" xmlns="http://www.w3.org/2000/svg">
<g clip-path="url(#clip0_5422_199950)">
<path d="M11 22C17.0751 22 22 17.0751 22 11C22 4.92487 17.0751 0 11 0C4.92487 0 0 4.92487 0 11C0 17.0751 4.92487 22 11 22Z" fill="#F0F0F0"/>
<path d="M11 0C4.92491 0 0 4.92491 0 11C0 12.3455 0.242043 13.6345 0.684191 14.8261H21.3159C21.758 13.6345 22 12.3455 22 11C22 4.92491 17.0751 0 11 0Z" fill="#0052B4"/>
<path d="M11.0004 0.00012207C6.27077 0.00012207 2.23879 2.98525 0.68457 7.17406H21.3162C19.762 2.98525 15.73 0.00012207 11.0004 0.00012207Z" fill="#D80027"/>
<path d="M2.84473 6.2179V11.7053C2.84473 14.8267 6.9225 15.7831 6.9225 15.7831C6.9225 15.7831 11.0002 14.8267 11.0002 11.7053V6.2179H2.84473Z" fill="#D80027"/>
<path d="M4.53027 7.17415H9.31291V5.26109L8.35638 5.73933L6.92161 4.30457L5.4868 5.73933L4.53027 5.26109V7.17415Z" fill="#FFDA44"/>
<path d="M10.0426 12.469L6.9339 9.36029L3.8252 12.469L4.83973 13.4835L6.9339 11.3894L9.02807 13.4835L10.0426 12.469Z" fill="#FFDA44"/>
<path d="M10.0426 9.56457H8.59215C8.6737 9.4238 8.72114 9.26078 8.72114 9.08641C8.72114 8.55807 8.29287 8.12988 7.76461 8.12988C7.39959 8.12988 7.08261 8.33433 6.92135 8.63489C6.76009 8.33437 6.44311 8.12988 6.07809 8.12988C5.54983 8.12988 5.12156 8.55807 5.12156 9.08641C5.12156 9.26078 5.169 9.42384 5.25055 9.56457H3.8252C3.8252 10.0929 4.28535 10.5211 4.81356 10.5211H4.78172C4.78172 11.0494 5.20995 11.4776 5.73825 11.4776C5.73825 11.9454 6.07418 12.334 6.51783 12.4172L5.76416 14.1188C6.12536 14.2656 6.52007 14.3472 6.93394 14.3472C7.34782 14.3472 7.74253 14.2656 8.10372 14.1188L7.35005 12.4172C7.7937 12.3341 8.12963 11.9454 8.12963 11.4776C8.65793 11.4776 9.08616 11.0494 9.08616 10.5211H9.05432C9.58249 10.5211 10.0426 10.0928 10.0426 9.56457Z" fill="#F0F0F0"/>
</g>
<defs>
<clipPath id="clip0_5422_199950">
<rect width="22" height="22" fill="white"/>
</clipPath>
</defs>
</svg>
