<svg width="22" height="22" viewBox="0 0 22 22" fill="none" xmlns="http://www.w3.org/2000/svg">
<g clip-path="url(#clip0_1046_3628)">
<path d="M11 22C17.0751 22 22 17.0751 22 11C22 4.92487 17.0751 0 11 0C4.92487 0 0 4.92487 0 11C0 17.0751 4.92487 22 11 22Z" fill="#F0F0F0"/>
<path d="M11 8.13093H21.6211C21.3452 7.10768 20.926 6.14341 20.3855 5.26135H11V8.13093Z" fill="#338AF3"/>
<path d="M4.15336 19.6088H17.8481C18.8519 18.8093 19.7129 17.8381 20.3862 16.7393H1.61523C2.2886 17.8381 3.14952 18.8093 4.15336 19.6088Z" fill="#338AF3"/>
<path d="M3.82679 2.66187C2.962 3.40656 2.21439 4.28351 1.61523 5.2613H3.82679V2.66187Z" fill="#338AF3"/>
<path d="M11 11.0001C11 9.87962 11 8.94192 11 8.13049H6.69565V11.0001H3.82607V8.13049H0.378941C0.132344 9.04547 0 10.0072 0 11.0001C0 11.993 0.132344 12.9547 0.378941 13.8697H21.6211C21.8677 12.9547 22 11.993 22 11.0001H11Z" fill="#338AF3"/>
<path d="M11.0006 0.000732422C9.47314 0.000732422 8.01844 0.312385 6.69629 0.875061V5.26161H11.0006C11.0006 4.25992 11.0006 3.40798 11.0006 2.39203H17.848C15.9689 0.895514 13.5895 0.000732422 11.0006 0.000732422Z" fill="#338AF3"/>
</g>
<defs>
<clipPath id="clip0_1046_3628">
<rect width="22" height="22" fill="white"/>
</clipPath>
</defs>
</svg>
